<?xml version="1.0" encoding="UTF-8" standalone="no"?>
<!-- Created with Inkscape (http://www.inkscape.org/) -->

<svg
   width="67.447929"
   height="59.507103"
   viewBox="0 0 17.845597 15.744587"
   version="1.1"
   id="svg5"
   xmlns:xlink="http://www.w3.org/1999/xlink"
   xmlns="http://www.w3.org/2000/svg"
   xmlns:svg="http://www.w3.org/2000/svg">
  <defs
     id="defs2">
    <linearGradient
       id="linearGradient54654">
      <stop
         style="stop-color:#ffffff;stop-opacity:1;"
         offset="0"
         id="stop54650" />
      <stop
         style="stop-color:#03273d;stop-opacity:0.65437788;"
         offset="1"
         id="stop54652" />
    </linearGradient>
    <linearGradient
       id="linearGradient54452">
      <stop
         style="stop-color:#04d5da;stop-opacity:1;"
         offset="0"
         id="stop54448" />
      <stop
         style="stop-color:#000000;stop-opacity:1;"
         offset="1"
         id="stop54450" />
    </linearGradient>
    <linearGradient
       id="linearGradient54446">
      <stop
         style="stop-color:#042e48;stop-opacity:1;"
         offset="0"
         id="stop54442" />
      <stop
         style="stop-color:#ffffff;stop-opacity:0.94009215;"
         offset="1"
         id="stop54444" />
    </linearGradient>
    <filter
       style="color-interpolation-filters:sRGB"
       id="filter56109-1"
       x="-0.013784358"
       y="-0.016377997"
       width="1.0275698"
       height="1.0327567">
      <feGaussianBlur
         stdDeviation="0.078078905"
         id="feGaussianBlur56111-8" />
    </filter>
    <filter
       style="color-interpolation-filters:sRGB"
       id="filter56121-4"
       x="-0.04477144"
       y="-0.020480648"
       width="1.1087378"
       height="1.026718">
      <feGaussianBlur
         stdDeviation="0.018318079"
         id="feGaussianBlur56123-2" />
    </filter>
    <linearGradient
       xlink:href="#linearGradient54654"
       id="linearGradient198647"
       gradientUnits="userSpaceOnUse"
       gradientTransform="translate(36.540343,6.5876)"
       x1="103.44394"
       y1="42.510807"
       x2="103.44498"
       y2="37.087627" />
    <linearGradient
       xlink:href="#linearGradient54452"
       id="linearGradient198649"
       gradientUnits="userSpaceOnUse"
       gradientTransform="translate(-8.323517,-35.965185)"
       x1="148.31293"
       y1="82.347069"
       x2="148.31293"
       y2="73.844254" />
    <linearGradient
       xlink:href="#linearGradient54446"
       id="linearGradient198651"
       gradientUnits="userSpaceOnUse"
       gradientTransform="translate(36.540018,6.5872318)"
       x1="103.45008"
       y1="30.912476"
       x2="103.44928"
       y2="27.046434" />
  </defs>
  <g
     id="layer1"
     transform="translate(-131.06477,-33.411754)">
    <path
       id="path54331-3"
       style="fill:#000000;fill-opacity:1;stroke:#ffffff;stroke-width:0.079375;stroke-dasharray:none;stroke-opacity:1"
       d="m 140.98373,43.691518 a 9.6654892,9.6654892 0 0 1 -0.25942,-0.331246 9.6654892,9.6654892 0 0 1 -0.60358,-0.998906 9.6654892,9.6654892 0 0 1 -0.13384,-0.297656 9.6654892,9.6654892 0 0 1 -0.13436,0.297656 9.6654892,9.6654892 0 0 1 -0.6041,0.998906 9.6654892,9.6654892 0 0 1 -0.262,0.334863 15.464787,15.464786 0 0 1 0.33176,0.928109 15.464787,15.464786 0 0 1 0.36897,1.472261 15.464787,15.464786 0 0 1 0.22273,1.5012 15.464787,15.464786 0 0 1 0.0744,1.51567 15.464787,15.464786 0 0 1 0.0744,-1.51567 15.464787,15.464786 0 0 1 0.22272,-1.5012 15.464787,15.464786 0 0 1 0.36897,-1.472261 15.464787,15.464786 0 0 1 0.33332,-0.931726 z" />
    <path
       id="path54329-0"
       style="fill:url(#linearGradient198647);fill-opacity:1;stroke:#ffffff;stroke-width:0.079375;stroke-dasharray:none;stroke-opacity:1"
       d="m 140.9837,43.691518 a 15.464787,15.464786 0 0 0 -0.33332,0.931726 15.464787,15.464786 0 0 0 -0.36897,1.472261 15.464787,15.464786 0 0 0 -0.22272,1.5012 15.464787,15.464786 0 0 0 -0.0744,1.494483 9.6654892,9.6654892 0 0 1 0,5.17e-4 15.464787,15.464786 0 0 1 0,0.0067 9.6654892,9.6654892 0 0 1 0.0703,-1.15135 9.6654892,9.6654892 0 0 1 0.21033,-1.147734 9.6654892,9.6654892 0 0 1 0.34726,-1.114661 9.6654892,9.6654892 0 0 1 0.47904,-1.064017 9.6654892,9.6654892 0 0 1 0.27027,-0.447001 9.6654892,9.6654892 0 0 1 -0.37775,-0.482141 z m -1.9973,0.0036 a 9.6654892,9.6654892 0 0 1 -0.37724,0.481624 9.6654892,9.6654892 0 0 1 0.2682,0.443901 9.6654892,9.6654892 0 0 1 0.47904,1.064017 9.6654892,9.6654892 0 0 1 0.34674,1.114661 9.6654892,9.6654892 0 0 1 0.21084,1.147734 9.6654892,9.6654892 0 0 1 0.0693,1.003039 15.464787,15.464786 0 0 0 -0.0734,-1.353406 15.464787,15.464786 0 0 0 -0.22273,-1.5012 15.464787,15.464786 0 0 0 -0.36897,-1.472261 15.464787,15.464786 0 0 0 -0.33176,-0.928109 z m 0.99683,5.265311 a 9.6654892,9.6654892 0 0 1 5.2e-4,0.02481 15.464787,15.464786 0 0 0 -5.2e-4,-0.02481 z m 5.2e-4,0.06201 a 9.6654892,9.6654892 0 0 1 5.1e-4,0.01912 15.464787,15.464786 0 0 0 -5.1e-4,-0.01912 z" />
    <path
       id="path54327-8"
       style="fill:url(#linearGradient198649);fill-opacity:1;stroke:#ffffff;stroke-width:0.079375;stroke-dasharray:none;stroke-opacity:1"
       d="m 139.98785,33.638833 c 0,0 -0.0268,0.988305 -0.0749,1.48053 -0.0496,0.503743 -0.12396,1.004748 -0.22273,1.5012 -0.0987,0.496488 -0.22161,0.987834 -0.36845,1.472262 -0.0788,0.238357 -0.16341,0.474761 -0.24868,0.713222 -0.0853,0.238461 -0.17089,0.47814 -0.2624,0.715597 -0.19377,0.467684 -0.41038,0.925572 -0.64906,1.372009 -0.23864,0.446419 -0.49906,0.880852 -0.78031,1.301729 -0.28114,0.420895 -0.58278,0.827734 -0.90382,1.219047 -0.32125,0.39129 -0.66152,0.766568 -1.01958,1.12448 -0.35792,0.357883 -0.7332,0.697979 -1.12448,1.019059 -0.3913,0.321218 -0.79814,0.623027 -1.21905,0.904337 -0.42089,0.281077 -0.85532,0.541323 -1.30173,0.779798 -0.16802,0.08335 -0.33755,0.163631 -0.50849,0.240812 0.003,0.0069 0.006,0.01378 0.009,0.02067 0.38482,-1.42e-4 0.76929,-0.02327 1.15135,-0.06925 0.38647,-0.04693 0.76974,-0.117165 1.14774,-0.210323 0.37821,-0.09319 0.75044,-0.209156 1.11466,-0.347266 0.364,-0.138105 0.71932,-0.298077 1.06402,-0.47904 0.34483,-0.181056 0.67841,-0.38279 0.9989,-0.604098 0.32049,-0.221222 0.62732,-0.461611 0.91881,-0.719852 0.29146,-0.258216 0.56705,-0.533809 0.82527,-0.825273 0.25824,-0.291488 0.49863,-0.598316 0.71985,-0.918807 0.22131,-0.320493 0.42304,-0.654069 0.6041,-0.998905 0.0448,-0.09506 0.088,-0.190849 0.12971,-0.287321 3e-5,6.8e-5 4.8e-4,-6.9e-5 5.2e-4,0 0.0415,0.09647 0.0846,0.192256 0.12919,0.287321 0.18105,0.344835 0.38278,0.678412 0.60409,0.998905 0.22122,0.320491 0.46162,0.627319 0.71986,0.918807 0.25822,0.291464 0.53381,0.567057 0.82527,0.825273 0.29149,0.258241 0.59832,0.49863 0.91881,0.719852 0.32049,0.221308 0.65407,0.423042 0.9989,0.604098 0.3447,0.180963 0.70002,0.340935 1.06402,0.47904 0.36422,0.13811 0.73645,0.254077 1.11466,0.347266 0.37799,0.09316 0.76127,0.163393 1.14773,0.210323 0.38206,0.04598 0.76653,0.0691 1.15135,0.06925 0.003,-0.0069 0.006,-0.01378 0.009,-0.02067 -0.17095,-0.07718 -0.34047,-0.157464 -0.5085,-0.240812 -0.44641,-0.238475 -0.88084,-0.498721 -1.30173,-0.779798 -0.4209,-0.281311 -0.82774,-0.58312 -1.21904,-0.904337 -0.39128,-0.32108 -0.76656,-0.661176 -1.12448,-1.019059 -0.35806,-0.357912 -0.69833,-0.73319 -1.01958,-1.12448 -0.32104,-0.391313 -0.62268,-0.798152 -0.90382,-1.219047 -0.28125,-0.420877 -0.54167,-0.85531 -0.78031,-1.301729 -0.2385,-0.446447 -0.45494,-0.904335 -0.64854,-1.372009 -0.0917,-0.237623 -0.1775,-0.477475 -0.25735,-0.719336 2e-5,-3.45e-4 -2e-5,-6.89e-4 0,-10e-4 -0.0903,-0.234067 -0.17491,-0.470299 -0.25373,-0.708483 -0.14684,-0.484428 -0.2698,-0.975774 -0.36845,-1.472262 -0.0988,-0.496452 -0.1731,-0.997457 -0.22273,-1.5012 -0.0479,-0.491889 -0.0744,-1.48053 -0.0744,-1.48053 z" />
    <path
       id="path54325-9"
       style="fill:url(#linearGradient198651);fill-opacity:1;stroke:#ffffff;stroke-width:0.0264583;stroke-dasharray:none;stroke-opacity:1"
       d="m 139.9893,33.633666 c 4.6e-4,0.496115 0.0248,0.991921 0.0729,1.485698 0.0496,0.503744 0.12396,1.004747 0.22273,1.5012 0.0988,0.496497 0.22196,0.987842 0.36897,1.472261 0.0779,0.235554 0.16927,0.487875 0.25842,0.719408 0.0357,-0.321453 0.0473,-0.663168 0.0506,-0.986575 -6.6e-4,-0.0086 -0.001,-0.01723 -0.002,-0.02584 -0.12635,-0.250995 -0.2417,-0.507382 -0.34571,-0.768428 -0.13809,-0.364048 -0.25406,-0.736107 -0.34727,-1.114144 -0.0932,-0.378163 -0.21032,-1.148251 -0.21032,-1.148251 0,0 -0.0678,-0.755877 -0.0682,-1.135331 z m 0,0 c -7.7e-4,0.376523 -0.0275,0.76148 -0.0722,1.135346 -0.0471,0.386649 -0.11749,0.770099 -0.21084,1.148251 -0.093,0.378026 -0.20883,0.750085 -0.34675,1.114144 -0.10265,0.256764 -0.21627,0.509005 -0.34055,0.756026 h -5.2e-4 c -6.9e-4,0.01274 -0.001,0.02549 -0.002,0.03824 0.003,0.319777 0.0155,0.668698 0.0506,0.98656 0.0876,-0.227982 0.17708,-0.487518 0.25379,-0.719393 0.14701,-0.484419 0.36897,-1.472261 0.36897,-1.472261 0,0 0.17309,-0.997457 0.22272,-1.5012 0.0477,-0.490868 0.0762,-0.992536 0.0768,-1.485713 z" />
    <path
       id="path56107-7"
       style="fill:none;fill-opacity:1;stroke:#ffffff;stroke-width:0.079375;stroke-dasharray:none;stroke-opacity:1;filter:url(#filter56109-1)"
       d="m 139.98785,33.638833 c 0,0 -0.0268,0.988305 -0.0749,1.48053 -0.0496,0.503743 -0.12396,1.004748 -0.22273,1.5012 -0.0987,0.496488 -0.22161,0.987834 -0.36845,1.472262 -0.0788,0.238357 -0.16341,0.474761 -0.24868,0.713222 -0.0853,0.238461 -0.17089,0.47814 -0.2624,0.715597 -0.19377,0.467684 -0.41038,0.925572 -0.64906,1.372009 -0.23864,0.446419 -0.49906,0.880852 -0.78031,1.301729 -0.28114,0.420895 -0.58278,0.827734 -0.90382,1.219047 -0.32125,0.39129 -0.66152,0.766568 -1.01958,1.12448 -0.35792,0.357883 -0.7332,0.697979 -1.12448,1.019059 -0.3913,0.321218 -0.79814,0.623027 -1.21905,0.904337 -0.42089,0.281077 -0.85532,0.541323 -1.30173,0.779798 -0.16802,0.08335 -0.33755,0.163631 -0.50849,0.240812 0.003,0.0069 0.006,0.01378 0.009,0.02067 0.38482,-1.42e-4 0.76929,-0.02327 1.15135,-0.06925 0.38647,-0.04693 0.76974,-0.117165 1.14774,-0.210323 0.37821,-0.09319 0.75044,-0.209156 1.11466,-0.347266 0.364,-0.138105 0.71932,-0.298077 1.06402,-0.47904 0.34483,-0.181056 0.67841,-0.38279 0.9989,-0.604098 0.32049,-0.221222 0.62732,-0.461611 0.91881,-0.719852 0.29146,-0.258216 0.56705,-0.533809 0.82527,-0.825273 0.25824,-0.291488 0.49863,-0.598316 0.71985,-0.918807 0.22131,-0.320493 0.42304,-0.654069 0.6041,-0.998905 0.0448,-0.09506 0.088,-0.190849 0.12971,-0.287321 3e-5,6.8e-5 4.8e-4,-6.9e-5 5.2e-4,0 0.0415,0.09647 0.0846,0.192256 0.12919,0.287321 0.18105,0.344835 0.38278,0.678412 0.60409,0.998905 0.22122,0.320491 0.46162,0.627319 0.71986,0.918807 0.25822,0.291464 0.53381,0.567057 0.82527,0.825273 0.29149,0.258241 0.59832,0.49863 0.91881,0.719852 0.32049,0.221308 0.65407,0.423042 0.9989,0.604098 0.3447,0.180963 0.70002,0.340935 1.06402,0.47904 0.36422,0.13811 0.73645,0.254077 1.11466,0.347266 0.37799,0.09316 0.76127,0.163393 1.14773,0.210323 0.38206,0.04598 0.76653,0.0691 1.15135,0.06925 0.003,-0.0069 0.006,-0.01378 0.009,-0.02067 -0.17095,-0.07718 -0.34047,-0.157464 -0.5085,-0.240812 -0.44641,-0.238475 -0.88084,-0.498721 -1.30173,-0.779798 -0.4209,-0.281311 -0.82774,-0.58312 -1.21904,-0.904337 -0.39128,-0.32108 -0.76656,-0.661176 -1.12448,-1.019059 -0.35806,-0.357912 -0.69833,-0.73319 -1.01958,-1.12448 -0.32104,-0.391313 -0.62268,-0.798152 -0.90382,-1.219047 -0.28125,-0.420877 -0.54167,-0.85531 -0.78031,-1.301729 -0.2385,-0.446447 -0.45494,-0.904335 -0.64854,-1.372009 -0.0917,-0.237623 -0.1775,-0.477475 -0.25735,-0.719336 2e-5,-3.45e-4 -2e-5,-6.89e-4 0,-10e-4 -0.0903,-0.234067 -0.17491,-0.470299 -0.25373,-0.708483 -0.14684,-0.484428 -0.2698,-0.975774 -0.36845,-1.472262 -0.0988,-0.496452 -0.1731,-0.997457 -0.22273,-1.5012 -0.0479,-0.491889 -0.0744,-1.48053 -0.0744,-1.48053 z" />
    <path
       id="path56119-5"
       style="fill:none;fill-opacity:1;stroke:#ffffff;stroke-width:0.079375;stroke-dasharray:none;stroke-opacity:1;filter:url(#filter56121-4)"
       d="m 140.98373,43.691518 a 9.6654892,9.6654892 0 0 1 -0.25942,-0.331246 9.6654892,9.6654892 0 0 1 -0.60358,-0.998906 9.6654892,9.6654892 0 0 1 -0.13384,-0.297656 9.6654892,9.6654892 0 0 1 -0.13436,0.297656 9.6654892,9.6654892 0 0 1 -0.6041,0.998906 9.6654892,9.6654892 0 0 1 -0.262,0.334863 15.464787,15.464786 0 0 1 0.33176,0.928109 15.464787,15.464786 0 0 1 0.36897,1.472261 15.464787,15.464786 0 0 1 0.22273,1.5012 15.464787,15.464786 0 0 1 0.0744,1.51567 15.464787,15.464786 0 0 1 0.0744,-1.51567 15.464787,15.464786 0 0 1 0.22272,-1.5012 15.464787,15.464786 0 0 1 0.36897,-1.472261 15.464787,15.464786 0 0 1 0.33332,-0.931726 z" />
    <path
       id="path58607-9"
       style="fill:none;fill-opacity:1;stroke:none;stroke-width:0.0793751;stroke-dasharray:none;stroke-opacity:1"
       d="M 152.94666,43.299712 A 12.957227,12.957227 0 0 1 139.9894,56.256937 12.957227,12.957227 0 0 1 127.03218,43.299712 12.957227,12.957227 0 0 1 139.9894,30.342485 12.957227,12.957227 0 0 1 152.94666,43.299712 Z" />
  </g>
</svg>
